<?xml version="1.0" encoding="utf-8"?>
<!-- Generator: Adobe Illustrator 24.1.1, SVG Export Plug-In . SVG Version: 6.00 Build 0)  -->
<svg version="1.1" id="Layer_5" xmlns="http://www.w3.org/2000/svg" xmlns:xlink="http://www.w3.org/1999/xlink" x="0px" y="0px"
	 viewBox="0 0 20 15" style="enable-background:new 0 0 20 15;" xml:space="preserve">
<style type="text/css">
	.st0{opacity:0.7;}
	.st1{fill:#FFFFFF;}
</style>
<g class="st0">
	<rect x="14.3" y="8.2" class="st1" width="0.6" height="0.6"/>
	<rect x="13.1" y="8.2" class="st1" width="0.6" height="0.6"/>
	<rect x="11.9" y="8.2" class="st1" width="0.6" height="0.6"/>
	<rect x="11.9" y="7" class="st1" width="3.1" height="0.6"/>
	<path class="st1" d="M17.7,7.2l-0.6,1.7c-0.1,0.4-0.5,0.6-0.9,0.6h-0.1V4.5h0V3.3c0,0,0,0,0,0c0,0,0,0,0,0V2V1.4h-0.6h-2.3h-0.2
		h-0.6h0h-2.1h-4v8c-0.2,0-0.4,0.1-0.6,0.2V2.7c0-0.5-0.4-0.9-0.9-0.9H1.7c-0.5,0-0.9,0.4-0.9,0.9s0.4,0.9,0.9,0.9h3.4v7.1
		c0,0.4,0.2,0.8,0.5,1c-0.3,0.3-0.5,0.7-0.5,1.1c0,0.8,0.7,1.5,1.5,1.5c0.8,0,1.5-0.7,1.5-1.5c0-0.3-0.1-0.7-0.3-0.9h6.5
		c-0.2,0.3-0.3,0.6-0.3,0.9c0,0.8,0.7,1.5,1.5,1.5c0.8,0,1.5-0.7,1.5-1.5c0-0.8-0.7-1.5-1.5-1.5H6.3c-0.3,0-0.6-0.3-0.6-0.6
		C5.7,10.3,6,10,6.3,10h9.9c0.6,0,1.2-0.4,1.4-1l0.6-1.7L17.7,7.2z M5.1,3H1.7C1.6,3,1.4,2.8,1.4,2.7c0-0.2,0.1-0.3,0.3-0.3h3.1
		c0.2,0,0.3,0.1,0.3,0.3V3z M15.6,11.9c0.5,0,0.9,0.4,0.9,0.9c0,0.5-0.4,0.9-0.9,0.9c-0.5,0-0.9-0.4-0.9-0.9
		C14.6,12.3,15.1,11.9,15.6,11.9z M6.7,11.9c0.5,0,0.9,0.4,0.9,0.9c0,0.5-0.4,0.9-0.9,0.9s-0.9-0.4-0.9-0.9
		C5.7,12.3,6.1,11.9,6.7,11.9z M10,2h0.3h2.1v0.7v0.5H10V2z M15.6,9.4H7V2h2.5v1.8h3.7v-1V2.8V2h0h0.8h1.6v0.6v0.6v1.2V9.4z"/>
</g>
</svg>
