<?xml version="1.0" encoding="utf-8"?>
<!-- Generator: Adobe Illustrator 16.0.3, SVG Export Plug-In . SVG Version: 6.00 Build 0)  -->
<!DOCTYPE svg PUBLIC "-//W3C//DTD SVG 1.1//EN" "http://www.w3.org/Graphics/SVG/1.1/DTD/svg11.dtd">
<svg version="1.1" id="Layer_1" xmlns="http://www.w3.org/2000/svg" xmlns:xlink="http://www.w3.org/1999/xlink" x="0px" y="0px"
	 width="6px" height="10px" viewBox="0 0 6 10" enable-background="new 0 0 6 10" xml:space="preserve">
<path fill="#252C53" d="M5.701,5.463c-0.467-0.81-1.589-1.005-2.22-0.399c-0.313,0.291-0.412,0.812-0.238,1.2
	c0.153,0.348,0.485,0.51,0.922,0.467c0.563-0.055,0.843-0.66,0.518-1.136C4.64,5.528,4.541,5.475,4.585,5.388
	C4.64,5.302,4.749,5.324,4.834,5.334C5.19,5.355,5.419,5.573,5.548,5.887c0.13,0.291,0.143,0.595,0.075,0.897
	C5.32,8.083,3.993,8.697,2.897,8.579c-0.39-0.053-0.499-0.204-0.499-0.604c0-1.299,0-2.597-0.008-3.895
	c0-0.205,0.063-0.239,0.248-0.239c0.604,0,1.224,0,1.827,0l0,0c0.314,0,0.617,0,0.932,0c0.063,0,0.108,0,0.163,0
	c0.248,0,0.323-0.118,0.346-0.193c0.008-0.044,0-0.088,0-0.088c0.008-0.043,0-0.075,0-0.108c-0.034-0.14-0.185-0.183-0.315-0.194
	c-0.03,0-0.065,0-0.098,0c-0.345,0-0.689,0-1.036,0c-0.584,0-1.171,0-1.754,0c-0.236,0-0.271-0.011-0.271-0.227l0,0
	c0.044-0.66-0.01-1.136-0.117-1.472C2.174,1.17,1.989,0.954,1.809,0.833C1.675,0.78,1.557,0.715,1.406,0.705
	c-0.499-0.044-0.91,0.15-1.299,0.432C0.032,1.191,0.043,1.225,0.086,1.289C0.15,1.418,0.216,1.418,0.344,1.364
	c0.746-0.303,1.31,0.012,1.397,0.768c0.043,0.346,0.021,0.704,0.032,1.06c0,0.022,0,0.043,0,0.055c-0.14,0-0.271,0-0.411,0
	c-0.066,0-0.109,0-0.163,0c-0.13,0-0.206,0.032-0.259,0.077C0.897,3.366,0.876,3.409,0.865,3.452c0,0.055,0,0.119,0,0.196
	c0.032,0.152,0.173,0.193,0.292,0.215c0.022,0,0.043,0,0.065,0h0.012c0.008,0,0.02,0,0.03,0c0.087,0,0.174,0,0.261,0
	c0.012,0,0.022,0,0.032,0c0.042-0.01,0.084,0,0.118,0c0.066,0.012,0.087,0.055,0.099,0.142l0,0L1.762,8.039c0,0,0,0.022,0,0.067
	c0,0.181,0.032,0.723,0.444,1.015c0.162,0.096,0.366,0.15,0.595,0.175c1.288,0.086,2.597-0.79,2.996-2.025
	C6.001,6.655,6.025,6.038,5.701,5.463z"/>
</svg>
