<?xml version="1.0" encoding="utf-8"?>
<!-- Generator: Adobe Illustrator 24.1.1, SVG Export Plug-In . SVG Version: 6.00 Build 0)  -->
<svg version="1.1" id="Layer_1" xmlns="http://www.w3.org/2000/svg" xmlns:xlink="http://www.w3.org/1999/xlink" x="0px" y="0px"
	 viewBox="0 0 123 140" style="enable-background:new 0 0 123 140;" xml:space="preserve">
<style type="text/css">
	.st0{opacity:0.5;fill:#B7B7B7;}
</style>
<g>
	<path class="st0" d="M115.31,16.36c-3.61-3.61-8.46-5.69-13.87-5.69H21c-5.41,0-10.26,2.22-13.87,5.69
		c-3.61,3.61-5.69,8.46-5.69,13.87v63.94v5.96v12.9c0,5.41,2.22,10.26,5.69,13.87c3.61,3.61,8.46,5.69,13.87,5.69h80.45v0.14
		c5.41,0,10.26-2.22,13.87-5.69c3.61-3.61,5.69-8.46,5.69-13.87v-12.9V82.52V30.23C121,24.82,118.78,19.97,115.31,16.36z
		 M8.93,30.23c0-3.33,1.25-6.24,3.47-8.46s5.27-3.61,8.6-3.61h80.45c3.33,0,6.38,1.39,8.6,3.61s3.61,5.27,3.61,8.6v43.28
		L93.26,53.12c-1.39-1.39-3.74-1.53-5.27,0L57.06,84.19L36.11,63.25c-1.39-1.39-3.74-1.53-5.27,0L8.93,85.3V30.23z"/>
	
		<ellipse transform="matrix(0.7071 -0.7071 0.7071 0.7071 -7.7207 53.9138)" class="st0" cx="61.22" cy="36.28" rx="9.99" ry="9.99"/>
</g>
</svg>
